<?xml version="1.0"?>
<svg xmlns="http://www.w3.org/2000/svg" xmlns:xlink="http://www.w3.org/1999/xlink" version="1.1" id="Layer_1" x="0px" y="0px" viewBox="0 0 392.652 392.652" style="enable-background:new 0 0 392.652 392.652;" xml:space="preserve" width="512px" height="512px"><g transform="matrix(1 -2.44929e-16 2.44929e-16 1 -8.52651e-14 8.52651e-14)"><path d="M264.914,0l-21.213,21.213l35.963,35.963C187.617,45.969,95.469,96.632,58.291,186.385  c-14.167,34.202-19.154,71.58-14.424,108.094c4.586,35.4,18.153,69.349,39.234,98.174l24.215-17.709  c-37.839-51.74-45.805-117.938-21.308-177.078c35.378-85.41,128.749-129.6,215.705-105.878L243.701,150l21.213,21.213l85.607-85.606  L264.914,0z" data-original="#000000" class="active-path" data-old_color="#000000" fill="#E8E8E8"/></g> </svg>
